<?xml version="1.0" encoding="UTF-8"?>
<svg version="1.1" xmlns="http://www.w3.org/2000/svg" width="512" height="512">
<path d="M0 0 C3.44130766 1.24842841 5.70333584 3.99839854 8.22457701 6.55815768 C8.84052756 7.17154496 9.45647812 7.78493224 10.09109384 8.41690701 C12.1588011 10.47966222 14.21558507 12.55297739 16.27261168 14.62637973 C17.75037113 16.10498514 19.22879099 17.58293077 20.70782286 19.0602634 C24.72660047 23.07817842 28.73604572 27.10529214 32.74391848 31.13408089 C36.93194823 35.34083359 41.12844548 39.53912167 45.32406431 43.73830295 C53.27021386 51.69378583 61.20868358 59.65688685 69.14444429 67.62273139 C78.1783598 76.69015076 87.22077066 85.74907769 96.26391655 94.80728996 C114.86842713 113.44317877 133.46220662 132.08974385 152.04897887 150.74332309 C156.25716254 149.10224108 159.05613267 145.99373456 162.15969664 142.83946872 C162.76874138 142.228605 163.37778611 141.61774128 164.00528675 140.98836654 C166.0474102 138.93782119 168.0822885 136.88023277 170.11733824 134.82266879 C171.57893319 133.35232565 173.04100653 131.88245793 174.50352293 130.41303134 C177.65299535 127.24706152 180.79948189 124.07816373 183.94383055 120.90710521 C188.91205664 115.89757764 193.88945765 110.8972362 198.86868101 105.8986423 C213.02649645 91.68319275 227.1742596 77.45779084 241.30727965 63.21768832 C249.11211789 55.35387334 256.92580153 47.49896039 264.74939591 39.65380424 C269.70594034 34.682578 274.65117562 29.70044605 279.58852202 24.71015584 C282.65639151 21.61464189 285.73459271 18.5295698 288.81590658 15.44744372 C290.24736895 14.0113941 291.67450429 12.57101691 293.09705359 11.1261375 C295.03284654 9.16118541 296.98326192 7.21204208 298.93826109 5.26622653 C299.78631827 4.39427668 299.78631827 4.39427668 300.65150791 3.50471169 C304.45110923 -0.23170935 304.45110923 -0.23170935 307.16314036 -0.34496617 C309.5828003 1.05138347 311.34905058 2.6590503 313.33311278 4.63304782 C314.181472 5.47005725 315.02983122 6.30706668 315.9038983 7.16944003 C317.28729399 8.55723163 317.28729399 8.55723163 318.69863707 9.97305942 C319.68545348 10.95253616 320.67289087 11.93138762 321.66090208 12.90965915 C324.34132528 15.56785213 327.01201417 18.23562514 329.68039542 20.9059 C331.9071808 23.13280496 334.13828883 25.35535442 336.3692987 27.57802576 C341.63002846 32.81951776 346.8825386 38.06914989 352.13027769 43.32364535 C357.54981121 48.74982744 362.9839514 54.16106342 368.42530382 59.56535774 C373.09332567 64.20273441 377.75167903 68.84967007 382.40245318 73.50434393 C385.18179522 76.28575803 387.96481852 79.06322651 390.75737768 81.83137584 C393.38112723 84.43294502 395.99265022 87.04618616 398.59511572 89.6690414 C400.01228837 91.09127674 401.44186264 92.50112041 402.87170225 93.91062045 C403.70596236 94.75608935 404.54022246 95.60155826 405.39976317 96.47264743 C406.13292407 97.20509583 406.86608498 97.93754422 407.62146288 98.69218802 C409.04897887 100.74332309 409.04897887 100.74332309 408.79230195 102.69434422 C407.54387354 106.13565188 404.79390341 108.39768006 402.23414427 110.91892123 C401.62075699 111.53487179 401.00736971 112.15082234 400.37539494 112.78543806 C398.31263973 114.85314532 396.23932457 116.9099293 394.16592222 118.9669559 C392.68731681 120.44471535 391.20937118 121.92313521 389.73203856 123.40216708 C385.71412353 127.42094469 381.68700981 131.43038994 377.65822107 135.4382627 C373.45146836 139.62629245 369.25318028 143.8227897 365.05399901 148.01840854 C357.09851612 155.96455808 349.1354151 163.90302781 341.16957057 171.83878851 C332.10215119 180.87270402 323.04322426 189.91511488 313.98501199 198.95826077 C295.34912319 217.56277135 276.7025581 236.15655084 258.04897887 254.74332309 C259.69006087 258.95150677 262.7985674 261.75047689 265.95283324 264.85404086 C266.56369695 265.4630856 267.17456067 266.07213034 267.80393541 266.69963098 C269.85448076 268.74175443 271.91206918 270.77663272 273.96963316 272.81168246 C275.4399763 274.27327741 276.90984402 275.73535075 278.37927061 277.19786716 C281.54524043 280.34733957 284.71413823 283.49382612 287.88519675 286.63817477 C292.89472431 291.60640086 297.89506575 296.58380187 302.89365965 301.56302524 C317.1091092 315.72084067 331.33451111 329.86860382 345.57461363 344.00162387 C353.43842861 351.80646211 361.29334156 359.62014575 369.13849771 367.44374013 C374.10972396 372.40028456 379.09185591 377.34551984 384.08214611 382.28286624 C387.17766007 385.35073574 390.26273215 388.42893693 393.34485823 391.51025081 C394.78090785 392.94171317 396.22128505 394.36884851 397.66616446 395.79139781 C399.63111655 397.72719077 401.58025987 399.67760614 403.52607542 401.63260531 C404.39802527 402.48066249 404.39802527 402.48066249 405.28759027 403.34585214 C409.0240113 407.14545345 409.0240113 407.14545345 409.13726813 409.85748458 C407.74091848 412.27714452 406.13325165 414.0433948 404.15925413 416.027457 C403.3222447 416.87581622 402.48523527 417.72417544 401.62286192 418.59824252 C400.69766752 419.52050632 399.77247313 420.44277011 398.81924254 421.39298129 C397.83976579 422.3797977 396.86091433 423.36723509 395.88264281 424.35524631 C393.22444982 427.0356695 390.55667681 429.7063584 387.88640195 432.37473965 C385.659497 434.60152502 383.43694753 436.83263305 381.21427619 439.06364292 C375.97278419 444.32437268 370.72315206 449.57688282 365.4686566 454.82462192 C360.04247451 460.24415543 354.63123853 465.67829562 349.22694421 471.11964804 C344.58956754 475.7876699 339.94263188 480.44602325 335.28795803 485.09679741 C332.50654393 487.87613945 329.72907544 490.65916274 326.96092612 493.45172191 C324.35935693 496.07547145 321.74611579 498.68699444 319.12326056 501.28945994 C317.70102521 502.70663259 316.29118154 504.13620686 314.8816815 505.56604648 C314.0362126 506.40030658 313.1907437 507.23456668 312.31965452 508.09410739 C311.58720613 508.8272683 310.85475773 509.5604292 310.10011393 510.3158071 C308.04897887 511.74332309 308.04897887 511.74332309 306.09795773 511.48664618 C302.65665007 510.23821776 300.39462189 507.48824763 297.87338072 504.92848849 C297.25743017 504.31510121 296.64147961 503.70171394 296.00686389 503.06973916 C293.93915663 501.00698396 291.88237266 498.93366879 289.82534605 496.86026645 C288.3475866 495.38166104 286.86916674 493.9037154 285.39013487 492.42638278 C281.37135726 488.40846775 277.36191201 484.38135403 273.35403925 480.35256529 C269.1660095 476.14581258 264.96951225 471.9475245 260.77389342 467.74834323 C252.82774387 459.79286034 244.88927415 451.82975932 236.95351344 443.86391479 C227.91959793 434.79649542 218.87718707 425.73756849 209.83404118 416.67935622 C191.2295306 398.04346741 172.63575111 379.39690232 154.04897887 360.74332309 C149.84079519 362.3844051 147.04182506 365.49291162 143.93826109 368.64717746 C143.32921635 369.25804118 142.72017162 369.86890489 142.09267098 370.49827963 C140.05054753 372.54882499 138.01566923 374.6064134 135.98061949 376.66397738 C134.51902454 378.13432052 133.0569512 379.60418825 131.5944348 381.07361484 C128.44496238 384.23958465 125.29847584 387.40848245 122.15412718 390.57954097 C117.1859011 395.58906853 112.20850008 400.58940997 107.22927672 405.58800387 C93.07146128 419.80345342 78.92369813 434.02885534 64.79067808 448.26895785 C56.98583984 456.13277283 49.1721562 463.98768578 41.34856182 471.83284193 C36.39201739 476.80406818 31.44678211 481.78620013 26.50943571 486.77649033 C23.44156622 489.87200429 20.36336502 492.95707638 17.28205115 496.03920245 C15.85058878 497.47525207 14.42345344 498.91562927 13.00090414 500.36050868 C11.06511119 502.32546077 9.11469581 504.2746041 7.15969664 506.22041965 C6.31163946 507.09236949 6.31163946 507.09236949 5.44644982 507.98193449 C1.6468485 511.71835552 1.6468485 511.71835552 -1.06518263 511.83161235 C-3.48484257 510.4352627 -5.25109285 508.82759588 -7.23515505 506.85359836 C-8.08351427 506.01658893 -8.93187349 505.1795795 -9.80594057 504.31720614 C-10.72820436 503.39201175 -11.65046816 502.46681735 -12.60067934 501.51358676 C-13.58749575 500.53411001 -14.57493314 499.55525855 -15.56294435 498.57698703 C-18.24336755 495.91879405 -20.91405644 493.25102103 -23.58243769 490.58074617 C-25.80922307 488.35384122 -28.0403311 486.13129176 -30.27134097 483.90862042 C-35.53207073 478.66712842 -40.78458087 473.41749629 -46.03231996 468.16300082 C-51.45185348 462.73681873 -56.88599367 457.32558275 -62.32734609 451.92128843 C-66.99536794 447.28391176 -71.6537213 442.63697611 -76.30449545 437.98230225 C-79.08383749 435.20088815 -81.86686079 432.42341966 -84.65941995 429.65527034 C-87.2831695 427.05370115 -89.89469249 424.44046001 -92.49715799 421.81760478 C-93.91433064 420.39536944 -95.34390491 418.98552577 -96.77374452 417.57602572 C-97.60800462 416.73055682 -98.44226473 415.88508792 -99.30180544 415.01399875 C-100.4015468 413.91532615 -100.4015468 413.91532615 -101.52350515 412.79445815 C-102.95102113 410.74332309 -102.95102113 410.74332309 -102.69434422 408.79230195 C-101.44591581 405.3509943 -98.69594568 403.08896612 -96.13618654 400.56772494 C-95.52279926 399.95177439 -94.90941198 399.33582384 -94.27743721 398.70120811 C-92.214682 396.63350086 -90.14136684 394.57671688 -88.06796449 392.51969028 C-86.58935908 391.04193083 -85.11141345 389.56351097 -83.63408083 388.08447909 C-79.6161658 384.06570149 -75.58905208 380.05625623 -71.56026334 376.04838347 C-67.35351063 371.86035373 -63.15522255 367.66385647 -58.95604128 363.46823764 C-51.00055839 355.52208809 -43.03745737 347.58361837 -35.07161283 339.64785767 C-26.00419346 330.61394215 -16.94526653 321.57153129 -7.88705426 312.5283854 C10.74883454 293.92387482 29.39539963 275.33009534 48.04897887 256.74332309 C46.40789686 252.53513941 43.29939033 249.73616928 40.1451245 246.63260531 C39.53426078 246.02356058 38.92339706 245.41451584 38.29402232 244.7870152 C36.24347697 242.74489175 34.18588855 240.71001346 32.12832457 238.67496371 C30.65798143 237.21336877 29.18811371 235.75129543 27.71868712 234.28877902 C24.5527173 231.1393066 21.3838195 227.99282006 18.21276098 224.8484714 C13.20323342 219.88024532 8.20289198 214.90284431 3.20429808 209.92362094 C-11.01115147 195.76580551 -25.23655338 181.61804236 -39.4766559 167.48502231 C-47.34047088 159.68018407 -55.19538383 151.86650042 -63.04053998 144.04290605 C-68.01176623 139.08636161 -72.99389818 134.14112633 -77.98418838 129.20377994 C-81.07970234 126.13591044 -84.16477442 123.05770924 -87.2469005 119.97639537 C-88.68295012 118.544933 -90.12332732 117.11779766 -91.56820673 115.69524837 C-93.53315882 113.75945541 -95.48230214 111.80904003 -97.42811769 109.85404086 C-98.30006754 109.00598368 -98.30006754 109.00598368 -99.18963253 108.14079404 C-102.92605357 104.34119272 -102.92605357 104.34119272 -103.0393104 101.6291616 C-101.64296075 99.20950165 -100.03529392 97.44325137 -98.0612964 95.45918918 C-97.22428697 94.61082995 -96.38727754 93.76247073 -95.52490419 92.88840365 C-94.59970979 91.96613986 -93.6745154 91.04387607 -92.72128481 90.09366488 C-91.74180806 89.10684847 -90.7629566 88.11941108 -89.78468508 87.13139987 C-87.12649209 84.45097667 -84.45871908 81.78028778 -81.78844422 79.11190653 C-79.56153927 76.88512115 -77.3389898 74.65401312 -75.11631846 72.42300326 C-69.87482646 67.16227349 -64.62519433 61.90976335 -59.37069887 56.66202426 C-53.94451678 51.24249075 -48.5332808 45.80835055 -43.12898648 40.36699814 C-38.49160981 35.69897628 -33.84467415 31.04062292 -29.1900003 26.38984877 C-26.4085862 23.61050673 -23.63111771 20.82748344 -20.86296839 18.03492427 C-18.2613992 15.41117472 -15.64815806 12.79965174 -13.02530283 10.19718623 C-11.60306748 8.78001358 -10.19322381 7.35043931 -8.78372377 5.9205997 C-7.93825487 5.0863396 -7.09278597 4.2520795 -6.22169679 3.39253879 C-5.1230242 2.29279743 -5.1230242 2.29279743 -4.0021562 1.17083907 C-1.95102113 -0.25667691 -1.95102113 -0.25667691 0 0 Z " fill="#030104" transform="translate(102.95102113485336,0.25667691230773926)"/>
</svg>
