<?xml version="1.0" encoding="UTF-8"?>
<svg version="1.1" xmlns="http://www.w3.org/2000/svg" width="512" height="512">
<path d="M0 0 C1.01823853 0.00215515 2.03647705 0.0043103 3.08557129 0.00653076 C17.7097884 0.05623391 32.00304638 0.37042012 46.375 3.3125 C47.37160645 3.50585938 48.36821289 3.69921875 49.39501953 3.8984375 C97.79648057 13.46213524 141.99059771 35.87987765 177.375 70.3125 C178.37877686 71.27760498 178.37877686 71.27760498 179.40283203 72.26220703 C188.33991207 80.87657599 196.74206664 89.58564609 204.10107422 99.59423828 C205.39750666 101.34285682 206.72788718 103.06078803 208.06640625 104.77734375 C215.93067241 114.9920598 222.3161092 125.94975258 228.375 137.3125 C229.03846436 138.55314209 229.03846436 138.55314209 229.71533203 139.81884766 C241.23204842 161.72199262 248.9030584 186.01309889 253.375 210.3125 C253.53581055 211.11316895 253.69662109 211.91383789 253.86230469 212.73876953 C259.3544441 240.81662453 259.10896692 274.30227935 253.375 302.3125 C253.18164062 303.30910645 252.98828125 304.30571289 252.7890625 305.33251953 C244.67028127 346.42132055 227.30084885 383.51549494 201.375 416.3125 C200.56289063 417.35019531 199.75078125 418.38789063 198.9140625 419.45703125 C186.24907313 435.01858759 171.69874403 449.61464417 155.375 461.3125 C154.02974408 462.30180622 152.68470229 463.29140366 151.33984375 464.28125 C120.03306909 487.08129792 84.47487825 502.30078684 46.375 509.3125 C45.57433105 509.47331055 44.77366211 509.63412109 43.94873047 509.79980469 C15.88172956 515.289821 -17.62684244 515.06193715 -45.625 509.3125 C-46.63755859 509.11382324 -47.65011719 508.91514648 -48.69335938 508.71044922 C-89.78600049 500.49315205 -126.72136417 483.05232803 -159.625 457.3125 C-160.16415039 456.89339355 -160.70330078 456.47428711 -161.25878906 456.04248047 C-177.49886305 443.27946125 -192.56962343 428.08823511 -204.625 411.3125 C-205.4887527 410.14261544 -206.35335469 408.9733575 -207.21875 407.8046875 C-222.36207742 387.1786757 -234.4442165 364.56952873 -242.625 340.3125 C-243.03806396 339.08998535 -243.03806396 339.08998535 -243.45947266 337.84277344 C-246.69755506 328.07192323 -249.22985473 318.19031263 -251.375 308.125 C-251.57375732 307.20033936 -251.77251465 306.27567871 -251.97729492 305.32299805 C-255.26999027 289.11638823 -256.00030278 273.1821298 -255.9375 256.6875 C-255.93534485 255.66926147 -255.9331897 254.65102295 -255.93096924 253.60192871 C-255.88126609 238.9777116 -255.56707988 224.68445362 -252.625 210.3125 C-252.33496094 208.81759033 -252.33496094 208.81759033 -252.0390625 207.29248047 C-242.60837882 159.56419789 -220.63885226 115.26845549 -186.625 80.3125 C-185.93245117 79.59416992 -185.23990234 78.87583984 -184.52636719 78.13574219 C-174.78805129 68.06884541 -165.02732714 58.47657992 -153.625 50.3125 C-153.08182129 49.9191748 -152.53864258 49.52584961 -151.97900391 49.12060547 C-121.06483319 26.8400395 -86.69185396 11.73917236 -49.375 4.0625 C-48.64442383 3.91127686 -47.91384766 3.76005371 -47.16113281 3.60424805 C-31.46684491 0.57387475 -15.9450952 -0.06071045 0 0 Z M-116.625 139.3125 C-117.30820313 139.93125 -117.99140625 140.55 -118.6953125 141.1875 C-140.82190712 161.92539622 -154.45228794 191.26718632 -161.625 220.3125 C-161.9446875 221.56417969 -162.264375 222.81585938 -162.59375 224.10546875 C-170.92187909 261.34634789 -163.19974477 303.44146291 -144.625 336.3125 C-144.26792969 336.95509766 -143.91085938 337.59769531 -143.54296875 338.25976562 C-138.6623957 346.97753834 -133.25323752 354.798196 -126.625 362.3125 C-125.8825 363.16457031 -125.14 364.01664062 -124.375 364.89453125 C-122.15820293 367.39997377 -119.90268726 369.86238219 -117.625 372.3125 C-116.9753125 373.02792969 -116.325625 373.74335938 -115.65625 374.48046875 C-87.31957396 404.39745941 -44.62475019 421.11322309 -3.80078125 422.30859375 C35.89260229 422.73341105 76.35295412 409.79442714 106.375 383.3125 C107.22707031 382.57 108.07914062 381.8275 108.95703125 381.0625 C111.46247377 378.84570293 113.92488219 376.59018726 116.375 374.3125 C117.09042969 373.6628125 117.80585938 373.013125 118.54296875 372.34375 C141.00718639 351.06616681 155.03577843 322.03208037 162.375 292.3125 C162.6946875 291.06082031 163.014375 289.80914062 163.34375 288.51953125 C171.67187909 251.27865211 163.94974477 209.18353709 145.375 176.3125 C144.83939453 175.34860352 144.83939453 175.34860352 144.29296875 174.36523438 C139.4123957 165.64746166 134.00323752 157.826804 127.375 150.3125 C126.6325 149.46042969 125.89 148.60835937 125.125 147.73046875 C122.90820293 145.22502623 120.65268726 142.76261781 118.375 140.3125 C117.7253125 139.59707031 117.075625 138.88164062 116.40625 138.14453125 C87.59023398 107.72146819 45.45273672 91.95058426 4.19140625 90.4140625 C-41.85399808 89.18569615 -83.70085186 108.01070119 -116.625 139.3125 Z " fill="#000000" transform="translate(255.625,-0.3125)"/>
</svg>
